<?xml version="1.0" standalone="no"?>
<!DOCTYPE svg PUBLIC "-//W3C//DTD SVG 1.1//EN" "http://www.w3.org/Graphics/SVG/1.1/DTD/svg11.dtd" >
<svg xmlns="http://www.w3.org/2000/svg">
<metadata>Generated by IcoMoon</metadata>
<defs>
<font id="bsch" horiz-adv-x="1024">
<font-face units-per-em="1024" ascent="960" descent="-64" />
<missing-glyph horiz-adv-x="1024" />
<glyph unicode="&#x20;" horiz-adv-x="512" d="" />
<glyph unicode="&#xe900;" glyph-name="facebook" d="M93.091 960c-50.909 0-93.091-42.182-93.091-93.091v-837.818c0-50.912 42.182-93.091 93.091-93.091h837.818c50.912 0 93.091 42.179 93.091 93.091v837.818c0 50.909-42.179 93.091-93.091 93.091h-837.818zM93.091 866.909h837.818v-837.818h-241.455v314.182h120.724l17.455 139.636h-138.179v90.182c0 40.727 9.999 68.361 68.361 68.361h75.636v126.548c-12.908 1.636-57.632 4.364-109.088 4.364-107.273 0-180.364-64.547-180.364-184.727v-104.727h-122.182v-139.636h122.182v-314.182h-450.909v837.818z" />
<glyph unicode="&#xe901;" glyph-name="instagram" d="M301.093 960c-165.275 0-301.093-135.636-301.093-301.093v-421.813c0-165.274 135.636-301.093 301.093-301.093h421.813c165.274 0 301.093 135.638 301.093 301.093v421.813c0 165.275-135.638 301.093-301.093 301.093h-421.813zM301.093 866.909h421.813c115.092 0 208.003-92.909 208.003-208.003v-421.813c0-115.092-92.909-208.003-208.003-208.003h-421.813c-115.094 0-208.003 92.909-208.003 208.003v421.813c0 115.094 92.909 208.003 208.003 208.003zM786.905 765.091c-23.455 0-42.179-18.727-42.179-42.185 0-23.455 18.726-42.179 42.179-42.179 23.459 0 42.185 18.726 42.185 42.179 0 23.457-18.726 42.185-42.185 42.185zM511.999 727.273c-153.638 0-279.272-125.635-279.272-279.272s125.635-279.272 279.272-279.272c153.638 0 279.272 125.635 279.272 279.272s-125.635 279.272-279.272 279.272zM511.999 634.183c103.456 0 186.182-82.726 186.182-186.182s-82.726-186.182-186.182-186.182c-103.456 0-186.182 82.726-186.182 186.182s82.726 186.182 186.182 186.182z" />
<glyph unicode="&#xe902;" glyph-name="telegram" d="M948.203 907.801c-13.232-0.616-25.697-4.463-36.777-8.771h-0.154c-11.231-4.463-64.629-26.929-145.724-60.937-81.095-34.161-186.351-78.479-290.834-122.489-208.662-87.863-413.785-174.348-413.785-174.348l2.462 0.926c0 0-14.157-4.616-28.93-14.773-7.54-4.924-15.85-11.696-23.082-22.313-7.232-10.62-13.080-26.929-10.926-43.703 3.539-28.469 22.005-45.551 35.239-54.934 13.388-9.541 26.16-14.004 26.16-14.004h0.308l192.351-64.782c8.617-27.701 58.628-192.043 70.63-229.9 7.079-22.619 14.004-36.777 22.619-47.548 4.156-5.538 9.080-10.156 14.926-13.85 2.308-1.382 4.77-2.462 7.232-3.384 0.772-0.46 1.54-0.614 2.462-0.768l-1.997 0.46c0.614-0.154 1.076-0.614 1.536-0.768 1.54-0.465 2.616-0.618 4.616-0.926 30.467-9.234 54.934 9.694 54.934 9.694l1.386 1.080 113.564 103.408 190.349-146.035 4.31-1.844c39.701-17.392 79.866-7.698 101.099 9.383 21.391 17.235 29.699 39.24 29.699 39.24l1.386 3.542 147.111 753.552c4.152 18.62 5.232 36.008 0.614 52.935s-16.466 32.777-30.779 41.24c-14.465 8.617-28.773 11.233-42.009 10.618zM944.205 827.014c-0.154-2.462 0.308-2.154-0.772-6.925v-0.462l-145.724-745.704c-0.614-1.080-1.694-3.388-4.616-5.696-3.076-2.462-5.538-3.998-18.311 1.080l-232.822 178.499-140.647-128.182 29.545 188.659c0 0 364.697 339.922 380.395 354.541 15.695 14.617 10.463 17.695 10.463 17.695 1.076 17.85-23.699 5.232-23.699 5.232l-479.647-297.144-0.154 0.772-229.896 77.553c-0.154 0-0.462 0.154-0.616 0.154 0.154 0 1.231 0.46 1.231 0.46l1.231 0.618 1.231 0.46c0 0 205.277 86.481 413.937 174.348 104.487 44.009 209.743 88.326 290.68 122.488 80.941 34.008 140.804 58.936 144.187 60.321 3.23 1.231 1.694 1.231 4.002 1.231z" />
<glyph unicode="&#xe903;" glyph-name="whatsapp" d="M873.187 811.178c-95.896 95.896-223.315 148.822-359.029 148.822-279.726 0-507.521-227.629-507.521-507.354-0.166-89.427 23.227-176.696 67.691-253.678l-72.005-262.968 269.105 70.679c73.996-40.481 157.617-61.717 242.564-61.883h0.166c279.724 0 507.354 227.626 507.518 507.518 0 135.549-52.759 262.967-148.49 358.863zM514.158 30.57h-0.166c-75.658 0-149.986 20.408-214.688 58.732l-15.431 9.124-159.772-41.807 42.639 155.621-9.955 15.927c-42.307 67.196-64.539 144.841-64.539 224.478 0 232.438 189.302 421.578 422.076 421.578 112.652 0 218.503-43.966 298.14-123.603 79.637-79.803 123.44-185.655 123.44-298.305 0-232.608-189.306-421.744-421.744-421.744zM745.436 346.463c-12.611 6.303-74.99 36.998-86.607 41.143-11.612 4.315-20.072 6.307-28.534-6.303-8.465-12.776-32.687-41.313-40.154-49.774-7.297-8.296-14.763-9.454-27.374-3.151-12.776 6.303-53.588 19.746-102.034 63.047-37.666 33.511-63.213 75.156-70.513 87.767-7.467 12.776-0.828 19.576 5.475 25.883 5.806 5.641 12.776 14.763 19.078 22.231 6.307 7.301 8.465 12.611 12.776 21.071 4.149 8.46 1.992 15.927-1.16 22.231-3.151 6.307-28.538 68.853-39.156 94.24-10.286 24.719-20.74 21.237-28.538 21.733-7.297 0.332-15.761 0.332-24.223 0.332s-22.231-3.151-33.847-15.927c-11.612-12.611-44.297-43.301-44.297-105.686 0-62.38 45.461-122.772 51.763-131.234 6.307-8.296 89.427-136.381 216.68-191.295 30.194-13.107 53.754-20.905 72.17-26.712 30.36-9.624 58.069-8.296 79.969-5.143 24.387 3.649 74.99 30.691 85.608 60.393 10.452 29.532 10.452 54.914 7.301 60.223s-11.612 8.46-24.387 14.933z" />
<glyph unicode="&#xe904;" glyph-name="check" d="M970.349 823.543l-644.955-644.958-271.745 271.747-53.649-53.649 298.569-298.57 26.825-25.656 26.825 25.656 671.782 671.782-53.651 53.649z" />
<glyph unicode="&#xe905;" glyph-name="phone" d="M223.403 959.428c-20.571 0-40.836-7.369-57.723-20.878l-2.456-1.228-1.228-1.228-122.814-126.499 1.228-1.228c-37.919-35.002-49.586-87.352-33.16-132.639 0.154-0.307-0.154-0.921 0-1.228 33.313-95.334 118.516-279.403 284.929-445.815 167.027-167.028 353.549-248.853 445.813-284.93h1.229c47.744-15.966 99.483-4.602 136.326 27.022l124.041 124.041c32.549 32.543 32.549 89.039 0 121.588l-159.66 159.655-1.223 2.458c-32.549 32.543-90.268 32.543-122.818 0l-78.601-78.601c-28.4 13.662-96.1 48.664-160.884 110.533-64.325 61.406-97.178 132.024-109.306 159.657l78.601 78.601c33.009 33.006 33.62 87.966-1.228 120.358l1.228 1.228-3.684 3.684-158.43 163.343-2.456 1.228c-16.887 13.51-37.151 20.878-57.723 20.878zM223.403 880.827c2.917 0 5.834-1.382 8.597-3.684l160.886-164.571c-0.307 0.307 2.303-3.838-2.456-8.597l-98.251-98.251-18.422-17.194 8.597-24.563c0 0 45.134-120.818 140.008-211.241l8.597-7.369c91.345-83.358 198.958-128.951 198.958-128.951l24.564-11.056 116.672 116.672c6.757 6.757 5.528 6.757 12.285 0l160.884-160.884c6.757-6.757 6.757-4.298 0-11.056l-120.354-120.359c-18.115-15.503-37.306-18.727-60.183-11.050-89.039 35.002-262.053 110.991-416.339 265.277-155.513 155.516-236.724 331.905-266.507 417.568-5.987 15.966-1.689 39.608 12.281 51.582l2.456 2.456 119.13 121.586c2.763 2.303 5.68 3.684 8.597 3.684z" />
<glyph unicode="&#xe906;" glyph-name="check-square" d="M0 945.113v-994.227h994.227v655.050l-82.852-82.852v-489.346h-828.522v828.522h820.755l82.852 82.852h-986.46zM964.454 809.184l-467.341-467.337-177.355 177.354-59.55-59.55 207.131-207.128 29.775-28.483 29.775 28.483 497.111 497.111-59.546 59.55z" />
<glyph unicode="&#xe907;" glyph-name="trangle" d="M0.001 704l69.642-70.932 412.693-412.694 29.662-28.372 29.662 28.372 412.69 412.694 69.649 70.932h-1024zM199.901 621.46h624.2l-312.101-312.099-312.099 312.099z" />
<glyph unicode="&#xe908;" glyph-name="doc" d="M118.154 960v-1024h787.692v764.308l-11.074 12.308-236.308 236.308-12.311 11.077h-527.998zM196.923 881.231h393.846v-236.308h236.308v-630.154h-630.154v866.462zM669.538 824.615l100.923-100.923h-100.923v100.923zM315.077 566.154v-78.769h393.846v78.769h-393.846zM315.077 408.615v-78.769h393.846v78.769h-393.846zM315.077 251.077v-78.769h393.846v78.769h-393.846z" />
<glyph unicode="&#xe909;" glyph-name="play" d="M114.353 960v-1024l72.297 47.216 722.999 464.785-795.297 511.999zM208.785 787.366l526.751-339.365-526.751-339.365v678.73z" />
<glyph unicode="&#xe90a;" glyph-name="quote" d="M341.332 716.189h251.508l-341.332-536.378h-251.507l341.331 536.378zM772.492 716.189h251.508l-341.331-536.378h-251.51l341.333 536.378z" />
<glyph unicode="&#xe90b;" glyph-name="calendar" horiz-adv-x="979" d="M177.998 959.753v-44.501h-178.001v-979.006h979.006v979.006h-178.001v44.501h-89v-44.501h-445.002v44.501h-89zM88.997 826.253h89v-44.501h89v44.501h445.002v-44.501h89v44.501h89v-89h-801.005v89zM88.997 648.251h801.005v-623.004h-801.005v623.004zM355.999 559.25v-89h89v89h-89zM534.001 559.25v-89h89v89h-89zM712.002 559.25v-89h89v89h-89zM177.998 381.249v-89h89v89h-89zM355.999 381.249v-89h89v89h-89zM534.001 381.249v-89h89v89h-89zM712.002 381.249v-89h89v89h-89zM177.998 203.248v-89h89v89h-89zM355.999 203.248v-89h89v89h-89zM534.001 203.248v-89h89v89h-89z" />
<glyph unicode="&#xe90c;" glyph-name="briefcase" d="M512 864c-59.627 0-108.75-40.875-123-96h-293v-640h832v640h-293.001c-14.251 55.125-63.373 96-122.999 96zM512 800c25.873 0 45.751-12.375 56-32h-112c10.249 19.625 30.127 32 56 32zM160 704h704v-288h-704v288zM512 512c-17.626 0-32-14.374-32-32s14.374-32 32-32c17.626 0 32 14.374 32 32s-14.374 32-32 32zM160 352h704v-160h-704v160z" />
<glyph unicode="&#xe90d;" glyph-name="video" d="M64 704v-512h704v107.998l192-96v488.002l-192-96v108h-704zM128 640h576v-384h-576v384zM896 588v-279.998l-128 64v151.996l128 64.002z" />
<glyph unicode="&#xe90e;" glyph-name="cube" d="M512 819l-13.001-6-320-144-19-8v-405.999l16-9.003 336-186.999 16 9.003 336 186.999v405.999l-18.999 8-333.001 150zM512 749l245.999-110-245.999-122.998-246 122.998 246 110zM224 588l256-128.002v-308.996l-256 141.999v294.999zM800 588v-294.999l-256-141.999v308.996l256 128.002z" />
<glyph unicode="&#xe90f;" glyph-name="comments" d="M64 800v-512h128v-162.999l52 42.001 151 120.998h309v512h-640zM128 736h512v-384h-267l-9-7.002-108-85.999v93.001h-128v384zM768 672v-64h128v-384h-128v-93.001l-117.001 93.001h-240l-80-64h298.001l202.999-162.999v162.999h128v512h-192z" />
<glyph unicode="&#xe910;" glyph-name="tasks" d="M329.375 790.583l-105.375-105.375-41.375 41.375-45.25-45.25 86.625-86.625 150.625 150.625-45.25 45.25zM448 735.958v-64h448v64h-448zM448 479.957v-64h448v64h-448zM448 223.957v-64h448v64h-448z" />
<glyph unicode="&#xe911;" glyph-name="pencil" d="M789.999 831c-26.748 0-52.749-10.75-72.998-31l-2.999-3-20.002 19-527.999-528-2-10.001-35-176-10-46.997 47 9.997 186 37.001 528 528.001-18.999 19 2.001 2 0.998 2c40.499 40.5 40.499 106.5 0 147-20.25 20.25-47.249 31-74.001 31zM789.999 768c10.001 0 20.501-4.5 29.001-13 17.126-17.125 17.126-39.875 0-57l-2.999-3-56.998 57 2.999 3c8.499 8.5 17.997 13 27.998 13zM695.002 726l94.997-95-45.999-47-96 96 47.002 46zM603.998 634l94.003-94-334.001-334.999-13 58.001-4 19.998-20 4.002-58 12.996 334.998 334.002zM223 245.001l70-16 16-69.999-65-13.001-34 34.001 13 64.998z" />
<glyph unicode="&#xe912;" glyph-name="bullhorn" d="M896 863l-50.999-37c0 0-63.625-47.25-154.999-94s-210.377-92-315.001-92h-311v-292.002l1-4.996 64-224 7-23.002h194l-11 40.998-52 183.002h108c103.251 0 222.248-46.127 313.999-93.001s156.002-93.001 156.002-93.001l50.999-37.001v293.001c37.001 13.376 64 48.627 64 90.001s-26.999 76.625-64 90v293zM832 744v-527.002c-26.5 17.877-47.501 34.125-114.001 68.002-93.999 48-215.373 96.623-333.999 98.999v192c119.748 2.375 241.25 52 335.002 100 66.372 34 86.75 50.125 112.998 68zM128 576h192v-192h-192v192zM139 320h61l45-160h-61l-45 160z" />
<glyph unicode="&#xe913;" glyph-name="paperclip" d="M671.985 832c-44.5 0-88.251-17.25-121.999-51l-300-300.002c-95.125-95.122-95.125-249.874 0-344.997 95.125-95.126 249.875-95.126 345.001 0l199.998 199.998-45.001 45.001-199.998-200.002c-70.627-70.623-184.375-70.623-255 0-70.625 70.627-70.625 184.375 0 255.002l300.001 299.999c42.997 43 112 43 154.997 0 43.001-43 43.001-112 0-155.001l-299.999-299.999c-15.375-15.375-39.625-15.375-55 0s-15.375 39.625 0 55l274.999 275-44.997 45-275.001-274.999c-39.875-39.877-39.875-105.125 0-145.002 39.876-39.874 105.126-39.874 145 0l299.999 299.999c67.5 67.502 67.5 177.502 0 245.002-33.748 33.75-78.501 51-123.001 51z" />
<glyph unicode="&#xe914;" glyph-name="angle" d="M345 70.997l46-45.995 400 399.997 21.999 23-21.999 23-400 400-46-46 377-377-377-377.003z" />
<glyph unicode="&#xe915;" glyph-name="docx" horiz-adv-x="788" d="M0 960v-1024h787.692v1024h-787.692zM78.769 881.231h630.154v-866.462h-630.154v866.462zM472.615 605.538v-256c0-8.46-11.232-19.692-19.692-19.692-1.694 0 0.768-1.847-2.462 2.462s-8.153 15.23-11.079 27.077c-5.845 23.54-6.152 49.231-6.152 49.231v78.769h-78.769v-177.231c0-8.46-11.231-19.692-19.692-19.692s-19.692 11.232-19.692 19.692v256h-157.538v-78.769h78.769v-177.231c0-54.461 44-98.462 98.462-98.462 38.769 0 66.462 25.383 82.464 57.848 11.843-7.389 20.46-18.464 35.69-18.464 54.461 0 98.462 44 98.462 98.462v177.231h78.769v78.769h-157.538z" />
<glyph unicode="&#xe916;" glyph-name="pdf" horiz-adv-x="788" d="M0 960v-1024h787.692v1024h-787.692zM78.769 881.231h630.154v-866.462h-630.154v866.462zM370.462 670.769c-12 0.154-26-4.154-35.692-12.308-10-8.461-14.462-18.923-17.231-29.538-5.385-21.231-3.846-43.231 1.231-67.692 6-28.617 23.077-63.078 36.923-96-7.077-29.999-8.923-56.615-19.692-87.383-9.231-26.463-21.077-41.693-32-65.233-24.769-9.385-54.308-14.923-73.846-27.077-21.077-13.076-39.539-27.538-50.462-48.002-10.923-20.46-9.692-49.384 4.923-70.152 7.231-10.921 16.769-19.539 29.538-24.615s26.615-5.23 38.154-1.229c23.231 7.999 39.692 25.844 55.385 46.765 14.615 19.385 24.923 52.311 38.154 78.769 19.846 6.617 34.154 14.927 55.385 19.692 22.154 4.923 37.077 2.619 57.844 4.923 8.925-10.153 16.463-26.459 25.848-34.462 18.771-16.305 39.385-29.227 64-30.767s49.231 13.848 62.767 36.923h1.233v1.233c5.998 10.461 10.153 21.843 9.846 34.462-0.307 12.615-6.617 25.844-14.769 34.462-16.156 17.227-36.769 21.689-59.077 24.615-17.231 2.304-41.232-3.848-61.538-4.923-17.845 23.536-35.537 41.228-51.692 71.381-8.771 16.309-11.079 30.157-18.46 46.773 5.691 26.766 16.92 56.611 18.46 79.998 1.847 28.308 0.768 52.769-7.385 75.077-4.155 11.231-10.768 22.308-20.921 30.769-9.846 8.154-22.617 13.231-35.694 13.538-0.462 0-0.769 0-1.231 0zM396.308 379.077c7.077-12.461 15.844-20.307 23.383-32-11.075-2.001-19.535 0-30.767-2.462-1.846-0.461-3.077-2.001-4.923-2.462 2.308 6.156 5.231 9.846 7.385 16.002 2.462 7.227 2.615 13.69 4.923 20.921zM541.538 299.079c13.229-1.694 17.999-4.155 19.692-4.923-0.307-0.618 0.461-0.465 0-1.233-4.923-8.153-5.384-7.538-8.617-7.385-2.615 0.154-12.615 5.537-22.15 12.308 2.769-0.154 8.613 1.54 11.075 1.233zM265.846 237.536c-2.154-3.23-4-10.768-6.154-13.536-12-16.002-23.077-23.383-25.846-24.615-0.462 0.614 0.769 0 0 1.233h-1.231c-4 5.691-2.923 3.383 0 8.613s12.154 15.844 28.308 25.848c1.231 0.768 3.692 1.69 4.923 2.458z" />
<glyph unicode="&#xe917;" glyph-name="success-square" d="M0 960v-1024h1024v1024h-1024zM93.091 866.909h837.818v-837.818h-837.818v837.818zM757.816 667.636l-338.907-338.909-152.727 152.73-66.909-66.914 186.182-186.182 33.455-31.995 33.455 31.995 372.366 372.366-66.914 66.909z" />
<glyph unicode="&#xe918;" glyph-name="caret-square" d="M0 960v-1024h1024v1024h-1024zM93.091 866.909h837.818v-837.818h-837.818v837.818zM429.091 760.727l-66.909-66.909 245.818-245.818-245.818-245.816 66.909-66.914 279.275 279.273 31.995 33.457-31.995 33.457-279.275 279.27z" />
<glyph unicode="&#xe919;" glyph-name="attention" horiz-adv-x="1195" d="M585.335 960l-37.333-64-512.002-886.665-36-64h1170.667l-35.998 64-512 886.665-37.333 64zM585.335 789.333l437.333-758.665h-874.669l437.335 758.665zM542.669 500.002v-256h85.333v256h-85.333zM542.669 201.335v-85.333h85.333v85.333h-85.333z" />
<glyph unicode="&#xe91a;" glyph-name="plane" d="M115 789l14-60 62-281-62-280.998-14-60 57 22.998 776.998 318-72.998 30-761 311zM204 683l496.998-203h-451.998l-45 203zM249 416h451.998l-496.998-203.002 45 203.002z" />
</font>
</defs>
</svg>
