<svg width="24" height="24" viewBox="0 0 24 24" fill="none" xmlns="http://www.w3.org/2000/svg">
<path d="M2.25 4.5V19.5H21.75V4.5H2.25ZM3.75 6H20.25V18H17.6953C17.6367 17.8975 17.6631 17.7568 17.5781 17.6719C17.2939 17.3877 16.8926 17.25 16.5 17.25C16.1074 17.25 15.7061 17.3877 15.4219 17.6719C15.3369 17.7568 15.3633 17.8975 15.3047 18H8.69531C8.63672 17.8975 8.66309 17.7568 8.57812 17.6719C8.29395 17.3877 7.89258 17.25 7.5 17.25C7.10742 17.25 6.70605 17.3877 6.42188 17.6719C6.33691 17.7568 6.36328 17.8975 6.30469 18H3.75V6ZM9 7.5C7.35059 7.5 6 8.85059 6 10.5C6 11.335 6.35742 12.0879 6.91406 12.6328C5.91504 13.3096 5.25 14.4639 5.25 15.75H6.75C6.75 14.5078 7.75781 13.5 9 13.5C10.2422 13.5 11.25 14.5078 11.25 15.75H12.75C12.75 14.4639 12.085 13.3096 11.0859 12.6328C11.6426 12.0879 12 11.335 12 10.5C12 8.85059 10.6494 7.5 9 7.5ZM9 9C9.83789 9 10.5 9.66211 10.5 10.5C10.5 11.3379 9.83789 12 9 12C8.16211 12 7.5 11.3379 7.5 10.5C7.5 9.66211 8.16211 9 9 9ZM14.25 9.75V11.25H18.75V9.75H14.25ZM14.25 12.75V14.25H18.75V12.75H14.25Z" fill="white"/>
</svg>
