<svg width="20" height="26" viewBox="0 0 20 26" fill="none" xmlns="http://www.w3.org/2000/svg">
<path d="M0 0V26H20V0H0ZM2 2H18V24H2V2ZM12 9V15.5C12 15.7148 11.7148 16 11.5 16C11.457 16 11.5195 16.0469 11.4375 15.9375C11.3555 15.8281 11.2305 15.5508 11.1562 15.25C11.0078 14.6523 11 14 11 14V12H9V16.5C9 16.7148 8.71484 17 8.5 17C8.28516 17 8 16.7148 8 16.5V10H4V12H6V16.5C6 17.8828 7.11719 19 8.5 19C9.48438 19 10.1875 18.3555 10.5938 17.5312C10.8945 17.7188 11.1133 18 11.5 18C12.8828 18 14 16.8828 14 15.5V11H16V9H12Z" fill="#006EFF"/>
</svg>
