<svg width="18" height="19" viewBox="0 0 18 19" fill="none" xmlns="http://www.w3.org/2000/svg">
<path d="M13.334 14.4004H4.67108C4.40651 14.4004 4.19141 14.6172 4.19141 14.8801V15.5202C4.19141 15.7848 4.4082 15.9998 4.67108 15.9998H13.3305C13.5951 15.9998 13.8102 15.783 13.8102 15.5202V14.8801C13.8153 14.6138 13.5985 14.4004 13.334 14.4004Z" fill="#006EFF"/>
<path d="M8.66789 13.542C8.76179 13.6359 8.88469 13.6837 9.00587 13.6837C9.12878 13.6837 9.25168 13.6359 9.34385 13.542L12.6247 10.2612C12.8107 10.0751 12.8107 9.77128 12.6247 9.58179L12.1706 9.12774C11.9845 8.94167 11.6807 8.94167 11.4912 9.12774L9.80474 10.8159V4.47967C9.80474 4.21508 9.58794 4 9.32509 4H8.68496C8.42039 4 8.20529 4.21336 8.20529 4.47967V10.8176L6.51711 9.12943C6.33104 8.94339 6.0255 8.94339 5.83773 9.12943L5.38368 9.58349C5.19763 9.76954 5.19763 10.0751 5.38368 10.2629L8.66789 13.542Z" fill="#006EFF"/>
</svg>
