<svg width="20" height="20" viewBox="0 0 20 20" fill="none" xmlns="http://www.w3.org/2000/svg">
<path d="M1.22942 15.0508L1.2294 15.0508C1.17536 15.2216 1.12461 15.3753 1.07547 15.5241C1.00994 15.7226 0.947284 15.9124 0.883547 16.1223C0.846555 16.2466 0.821171 16.3572 0.790899 16.4891C0.778471 16.5432 0.765218 16.601 0.75 16.6647V16.6649V16.6655V16.666V16.6665V16.667V16.6676V16.6681V16.6686V16.6691V16.6696V16.6702V16.6707V16.6712V16.6717V16.6723V16.6728V16.6733V16.6738V16.6744V16.6749V16.6754V16.6759V16.6765V16.677V16.6775V16.678V16.6786V16.6791V16.6796V16.6801V16.6806V16.6812V16.6817V16.6822V16.6827V16.6833V16.6838V16.6843V16.6848V16.6854V16.6859V16.6864V16.6869V16.6875V16.688V16.6885V16.689V16.6896V16.6901V16.6906V16.6911V16.6916V16.6922V16.6927V16.6932V16.6937V16.6943V16.6948V16.6953V16.6958V16.6964V16.6969V16.6974V16.6979V16.6985V16.699V16.6995V16.7V16.7005V16.7011V16.7016V16.7021V16.7026V16.7032V16.7037V16.7042V16.7047V16.7053V16.7058V16.7063V16.7068V16.7074V16.7079V16.7084V16.7089V16.7094V16.71V16.7105V16.711V16.7115V16.7121V16.7126V16.7131V16.7136V16.7142V16.7147V16.7152V16.7157V16.7163V16.7168V16.7173V16.7178V16.7183V16.7189V16.7194V16.7199V16.7204V16.721V16.7215V16.722V16.7225V16.7231V16.7236V16.7241V16.7246V16.7252V16.7257V16.7262V16.7267V16.7272V16.7278V16.7283V16.7288V16.7293V16.7299V16.7304V16.7309V16.7314V16.732V16.7325V16.733V16.7335V16.7339C0.88604 17.1267 1.22738 17.4075 1.83587 17.7394C2.58818 18.1469 3.42491 18.4071 4.3291 18.626C5.31309 18.8622 6.32097 19.0168 7.34584 19.118L7.34606 19.118C8.4976 19.232 9.65595 19.2713 10.8152 19.2395C12.6228 19.1887 14.3839 18.9918 16.0883 18.5226L16.0884 18.5225C16.9019 18.2987 17.6553 18.0276 18.3297 17.6335L18.3332 17.6315C18.4369 17.5717 18.5407 17.5046 18.6403 17.4335C18.9984 17.1753 19.1782 16.9711 19.25 16.7468V16.7468V16.7462V16.7456V16.745V16.7444V16.7438V16.7432V16.7426V16.742V16.7414V16.7408V16.7402V16.7396V16.739V16.7384V16.7378V16.7372V16.7366V16.736V16.7354V16.7348V16.7342V16.7336V16.733V16.7324V16.7318V16.7312V16.7306V16.73V16.7294V16.7288V16.7282V16.7276V16.727V16.7264V16.7258V16.7252V16.7246V16.724V16.7234V16.7228V16.7221V16.7215V16.7209V16.7203V16.7197V16.7191V16.7185V16.7179V16.7173V16.7167V16.7161V16.7155V16.7149V16.7143V16.7137V16.7131V16.7125V16.7119V16.7113V16.7107V16.7101V16.7095V16.7089V16.7083V16.7077V16.7071V16.7065V16.7059V16.7053V16.7047V16.7041V16.7035V16.7029V16.7023V16.7017V16.7011V16.7005V16.6999V16.6993V16.6987V16.6981V16.6975V16.6969V16.6963V16.6957V16.695V16.6944V16.6938V16.6932V16.6926V16.692V16.6914V16.6908V16.6902V16.6896V16.689V16.6884V16.6878V16.6872V16.6866V16.686V16.6854V16.6848V16.6842V16.6836V16.683V16.6824V16.6818V16.6812V16.6806V16.68V16.6794V16.6788V16.6782V16.6776V16.677V16.6764V16.6758V16.6752V16.6746V16.674V16.6734V16.6728V16.6722V16.6716V16.671V16.6704V16.6698V16.6692V16.6685V16.6679V16.6673V16.6667V16.6661V16.6655V16.6649V16.6643V16.6637V16.6631V16.6625V16.6619V16.6613V16.6607V16.6601V16.6595V16.6589V16.6583V16.6577V16.6571V16.6565V16.6559V16.6553V16.6547V16.6541V16.6535V16.6529V16.6523V16.6517V16.6511V16.6505V16.6499V16.6493V16.6487V16.6481V16.6475V16.6469V16.6463V16.6457C19.249 16.6408 19.2481 16.6358 19.2472 16.6308L19.2448 16.6172L19.2449 16.6172C19.1826 16.223 19.0539 15.8464 18.9009 15.3986C18.8746 15.3214 18.8475 15.2421 18.8199 15.1602L18.8198 15.16C18.7056 14.8209 18.4976 14.5517 18.1657 14.3353C18.1061 14.2974 18.0689 14.2725 18.0393 14.2527C18.0029 14.2283 17.9779 14.2116 17.9368 14.1878C16.6796 13.4724 15.3465 12.8924 13.956 12.4127C13.8594 12.4976 13.7573 12.5862 13.6738 12.6534L13.6738 12.6535C12.1927 13.846 10.47 14.2292 8.59643 13.808C7.8302 13.6375 7.18376 13.2696 6.62969 12.8748C6.43742 12.7387 6.22875 12.5662 6.04998 12.4178C5.25524 12.6997 4.48875 12.9797 3.75329 13.3162L1.22942 15.0508ZM1.22942 15.0508C1.30288 14.8185 1.4601 14.6161 1.74724 14.413M1.22942 15.0508L1.74724 14.413M1.74724 14.413C2.34961 13.9877 3.02429 13.6498 3.75319 13.3162L1.74724 14.413Z" stroke="#8E8E8D" stroke-width="1.5"/>
<path d="M11.9268 10.0053L11.9274 10.0047C13.2636 8.73706 13.9044 7.13234 13.9859 5.21053C13.9739 4.79057 13.9535 4.44326 13.8754 4.12695C13.5028 2.64735 12.7032 1.63099 11.3973 1.0633C10.7889 0.799634 10.1936 0.692486 9.60033 0.779998C8.50392 0.942788 7.617 1.46074 6.93811 2.38003L11.9268 10.0053ZM11.9268 10.0053C11.5741 10.3406 11.1971 10.5894 10.7852 10.7343M11.9268 10.0053L10.7852 10.7343M6.0305 4.76635L6.03048 4.76655C5.96568 5.58609 6.08005 6.3902 6.33982 7.18724L6.0305 4.76635ZM6.0305 4.76635C6.10024 3.88127 6.41289 3.09139 6.93808 2.38008L6.0305 4.76635ZM10.7852 10.7343C10.5062 10.832 10.198 10.834 9.73096 10.8253C9.23709 10.8137 8.79151 10.5897 8.29038 10.1847C7.35615 9.42602 6.7398 8.41255 6.33991 7.18752L10.7852 10.7343Z" stroke="#8E8E8D" stroke-width="1.5"/>
</svg>
