<svg width="230" height="39" viewBox="0 0 230 39" fill="none" xmlns="http://www.w3.org/2000/svg">
<g clip-path="url(#clip0)">
<path d="M58.955 0.0627441H71.0369V2.13521H61.2954V7.03376H67.5578C70.2146 7.03376 72.4286 9.35743 72.4286 11.9951C72.4286 14.6328 70.2778 17.0193 67.5578 17.0193H58.955V0.0627441ZM61.2954 14.9468H67.5578C68.9495 14.9468 70.0881 13.4396 70.0881 11.9951C70.0881 10.6135 68.9495 9.10622 67.5578 9.10622H61.2954V14.9468Z" fill="#1D1D1B" stroke="#1D1D1B" stroke-width="0.25" stroke-miterlimit="10"/>
<path d="M84.4472 17.0192V6.2173H83.7514L79.0071 16.9564H74.9587V4.08203H77.2992V14.8212H77.742L82.4862 4.08203H86.7244V16.9564H84.4472V17.0192Z" fill="#1D1D1B" stroke="#1D1D1B" stroke-width="0.25" stroke-miterlimit="10"/>
<path d="M93.0501 9.23185H95.0743C97.9208 9.23185 98.1738 8.47822 98.1738 7.7874C98.1738 6.97098 96.9087 6.21735 94.8212 6.21735C93.4296 6.21735 92.291 6.65697 91.6584 6.97098L91.5952 7.6618H89.6975V5.40093C89.7607 5.33813 91.9115 4.01929 94.8845 4.01929C98.1738 4.01929 100.514 5.71494 100.514 7.7874C100.514 8.91784 99.7553 9.92267 99.0594 10.2367C99.945 10.6135 100.957 11.6811 100.957 13C100.957 15.4492 98.3636 17.0193 94.9478 17.0193C91.4054 17.0193 88.9384 15.0724 88.8119 15.0096L90.2668 13.2512C90.33 13.314 92.038 14.8212 94.9478 14.8212C96.5292 14.8212 98.6799 14.3816 98.6799 13C98.6799 12.1207 98.1738 11.4299 94.9478 11.4299H93.0501V9.23185Z" fill="#1D1D1B" stroke="#1D1D1B" stroke-width="0.25" stroke-miterlimit="10"/>
<path d="M103.045 17.0192V4.08203H105.385V9.16899H112.533V4.08203H114.874V16.9564H112.533V11.3043H105.385V16.9564H103.045V17.0192Z" fill="#1D1D1B" stroke="#1D1D1B" stroke-width="0.25" stroke-miterlimit="10"/>
<path d="M126.702 13.1884L128.094 14.9468C127.841 15.2608 126.26 17.0193 122.907 17.0193C119.301 17.0193 116.392 14.1932 116.392 10.4879C116.392 6.90818 119.238 4.01929 122.844 4.01929C126.323 4.01929 129.106 6.84537 129.106 10.4879C129.106 10.7391 129.106 11.1787 129.043 11.3043H118.732C119.175 13.314 120.82 14.7584 122.844 14.7584C125.184 14.8212 126.323 13.6908 126.702 13.1884ZM118.922 9.23185H126.639C126.386 7.6618 124.805 6.34296 122.907 6.34296C120.946 6.34296 119.365 7.53619 118.922 9.23185Z" fill="#1D1D1B" stroke="#1D1D1B" stroke-width="0.25" stroke-miterlimit="10"/>
<path d="M133.218 10.5507C133.218 13.1256 135.179 14.7584 137.519 14.7584C140.429 14.7584 141.631 13.1884 141.631 13.1884L143.086 15.0096C142.959 15.1352 141.062 17.0193 137.519 17.0193C133.914 17.0193 130.877 14.3188 130.877 10.4879C130.877 6.71977 133.914 4.01929 137.519 4.01929C140.492 4.01929 142.263 5.33813 142.327 5.33813V7.599H140.619L140.303 6.84537C139.67 6.59417 138.721 6.28016 137.519 6.28016C135.179 6.34296 133.218 7.97581 133.218 10.5507Z" fill="#1D1D1B" stroke="#1D1D1B" stroke-width="0.25" stroke-miterlimit="10"/>
<path d="M152.384 8.22705V10.0483H144.667V8.22705H152.384Z" fill="#1D1D1B" stroke="#1D1D1B" stroke-width="0.25" stroke-miterlimit="10"/>
<path d="M164.593 4.08203V14.8212H169.654V4.08203H171.994V16.9564H154.915V4.08203H157.255V14.8212H162.316V4.08203H164.593Z" fill="#1D1D1B" stroke="#1D1D1B" stroke-width="0.25" stroke-miterlimit="10"/>
<path d="M176.801 11.3671V17.0192H174.461V4.08203H176.801V9.16899H180.787C181.103 9.10619 181.482 8.72937 181.735 8.16416L182.494 6.1545C183.127 4.83565 184.266 4.08203 185.531 4.08203L186.416 4.33324V6.4057H185.531C185.151 6.4057 184.772 6.71971 184.582 7.28493L183.823 9.29459C183.696 9.6714 183.127 10.111 182.937 10.2366C183.127 10.2994 183.633 10.739 183.823 11.1158L185.088 13.8791C185.341 14.4444 185.721 14.7584 186.037 14.7584H186.922V16.8308L186.037 17.082C184.772 17.082 183.633 16.3284 183.001 15.0096L181.735 12.2463C181.482 11.7439 181.166 11.3671 180.787 11.3671H176.801Z" fill="#1D1D1B" stroke="#1D1D1B" stroke-width="0.25" stroke-miterlimit="10"/>
<path d="M201.914 10.5506C201.914 14.1931 198.815 17.082 195.209 17.082C191.603 17.082 188.441 14.1303 188.441 10.5506C188.441 6.97093 191.54 4.08204 195.209 4.08204C198.815 4.01924 201.914 6.97093 201.914 10.5506ZM190.781 10.5506C190.781 12.8743 192.869 14.7584 195.209 14.7584C197.55 14.7584 199.637 12.8743 199.637 10.5506C199.637 8.22697 197.613 6.34291 195.209 6.34291C192.805 6.34291 190.781 8.22697 190.781 10.5506Z" fill="#1D1D1B" stroke="#1D1D1B" stroke-width="0.25" stroke-miterlimit="10"/>
<path d="M205.583 4.08203H216.084V16.9564H213.743V6.2173H209.252L207.417 14.9468C207.164 16.3284 205.646 17.0192 204.381 17.0192L203.243 16.768V14.6956H204.381C204.761 14.6956 205.267 14.3815 205.33 13.8163L206.911 6.2173H205.583V4.08203Z" fill="#1D1D1B" stroke="#1D1D1B" stroke-width="0.25" stroke-miterlimit="10"/>
<path d="M222.536 8.72943C224.813 8.72943 226.331 9.04344 227.596 9.67146V8.85504C227.596 7.09658 226.078 6.21735 224.37 6.21735C222.979 6.21735 222.156 6.34296 221.271 6.84537L221.144 7.7874H219.31V5.46373C220.891 4.5845 222.156 4.01929 224.434 4.01929C227.66 4.01929 229.937 5.65214 229.937 9.29465V17.0193H228.102L227.723 15.1352C226.458 16.1401 224.94 17.1449 222.599 17.1449C219.816 17.1449 218.171 15.2608 218.171 13C218.171 10.6135 219.816 8.72943 222.536 8.72943ZM223.042 15.0096C224.876 15.0096 226.394 14.0048 227.66 12.8116V11.6811C226.458 11.0531 224.687 10.7391 222.852 10.7391C221.081 10.7391 220.448 11.8067 220.448 12.8744C220.385 13.942 221.271 15.0096 223.042 15.0096Z" fill="#1D1D1B" stroke="#1D1D1B" stroke-width="0.25" stroke-miterlimit="10"/>
<path d="M58.7019 38.8744V26H61.0424V31.087H68.1904V26H70.5308V38.8744H68.1904V33.2222H61.0424V38.8744H58.7019Z" fill="#1D1D1B" stroke="#1D1D1B" stroke-width="0.25" stroke-miterlimit="10"/>
<path d="M76.983 30.6473C79.2602 30.6473 80.7784 30.9613 82.0435 31.5894V30.7729C82.0435 29.0145 80.5254 28.1353 78.8175 28.1353C77.4258 28.1353 76.6035 28.2609 75.7179 28.7633L75.5914 29.7053H73.7569V27.4444C75.3384 26.5652 76.6035 26 78.8807 26C82.1068 26 84.384 27.6328 84.384 31.2754V39H82.5496L82.17 37.1159C80.9049 38.1208 79.3868 39.1256 77.0463 39.1256C74.263 39.1256 72.6183 37.2415 72.6183 34.9807C72.5551 32.4686 74.1997 30.6473 76.983 30.6473ZM77.4258 36.9275C79.2602 36.9275 80.7784 35.9227 82.0435 34.7295V33.599C80.8417 32.971 79.0705 32.657 77.236 32.657C75.4649 32.657 74.8323 33.7246 74.8323 34.7923C74.8323 35.8599 75.6546 36.9275 77.4258 36.9275Z" fill="#1D1D1B" stroke="#1D1D1B" stroke-width="0.25" stroke-miterlimit="10"/>
<path d="M105.891 21.9807V24.0532H96.1497V38.8744H93.8092V21.9807H105.891Z" fill="#1D1D1B" stroke="#1D1D1B" stroke-width="0.25" stroke-miterlimit="10"/>
<path d="M109.37 30.6473C111.647 30.6473 113.166 30.9613 114.431 31.5894V30.7729C114.431 29.0145 112.913 28.1353 111.205 28.1353C109.813 28.1353 108.991 28.2609 108.105 28.7633L107.979 29.7053H106.144V27.4444C107.726 26.5652 108.991 26 111.268 26C114.494 26 116.771 27.6328 116.771 31.2754V39H114.937L114.557 37.1159C113.292 38.1208 111.774 39.1256 109.433 39.1256C106.65 39.1256 105.005 37.2415 105.005 34.9807C104.942 32.4686 106.65 30.6473 109.37 30.6473ZM109.813 36.9275C111.647 36.9275 113.166 35.9227 114.431 34.7295V33.599C113.229 32.971 111.458 32.657 109.623 32.657C107.852 32.657 107.219 33.7246 107.219 34.7923C107.219 35.8599 108.105 36.9275 109.813 36.9275Z" fill="#1D1D1B" stroke="#1D1D1B" stroke-width="0.25" stroke-miterlimit="10"/>
<path d="M123.034 31.1498H125.058C127.904 31.1498 128.157 30.3962 128.157 29.7054C128.157 28.8889 126.892 28.1353 124.805 28.1353C123.413 28.1353 122.275 28.5749 121.642 28.8889L121.579 29.5798H119.681V27.3189C119.744 27.2561 121.895 25.9373 124.868 25.9373C128.157 25.9373 130.498 27.6329 130.498 29.7054C130.498 30.8358 129.739 31.8406 129.043 32.1546C129.929 32.5315 130.941 33.5991 130.941 34.9179C130.941 37.3672 128.347 38.9373 124.931 38.9373C121.389 38.9373 118.922 36.9904 118.795 36.9276L120.25 35.1691C120.314 35.2319 122.021 36.7392 124.931 36.7392C126.513 36.7392 128.663 36.2996 128.663 34.9179C128.663 34.0387 128.157 33.3479 124.931 33.3479H123.034V31.1498Z" fill="#1D1D1B" stroke="#1D1D1B" stroke-width="0.25" stroke-miterlimit="10"/>
<path d="M143.086 35.1063L144.477 36.8648C144.224 37.1788 142.643 38.9373 139.29 38.9373C135.685 38.9373 132.775 36.1112 132.775 32.4059C132.775 28.8261 135.622 25.9373 139.227 25.9373C142.706 25.9373 145.49 28.7633 145.49 32.4059C145.49 32.6571 145.49 33.0967 145.426 33.2223H135.116C135.558 35.2319 137.203 36.6764 139.227 36.6764C141.568 36.7392 142.706 35.546 143.086 35.1063ZM135.305 31.087H143.023C142.77 29.517 141.188 28.1981 139.29 28.1981C137.329 28.1981 135.748 29.4542 135.305 31.087Z" fill="#1D1D1B" stroke="#1D1D1B" stroke-width="0.25" stroke-miterlimit="10"/>
<path d="M151.752 38.8744V28.1353H147.134V26H158.71V28.1353H154.092V38.8744H151.752Z" fill="#1D1D1B" stroke="#1D1D1B" stroke-width="0.25" stroke-miterlimit="10"/>
<path d="M160.987 38.8744V26H163.328V31.087H170.476V26H172.816V38.8744H170.476V33.2222H163.328V38.8744H160.987Z" fill="#1D1D1B" stroke="#1D1D1B" stroke-width="0.25" stroke-miterlimit="10"/>
<path d="M187.871 32.4059C187.871 36.0484 184.772 38.9373 181.166 38.9373C177.561 38.9373 174.398 35.9856 174.398 32.4059C174.398 28.8261 177.497 25.9373 181.166 25.9373C184.708 25.9373 187.871 28.8261 187.871 32.4059ZM176.675 32.4059C176.675 34.7295 178.762 36.6136 181.103 36.6136C183.443 36.6136 185.531 34.7295 185.531 32.4059C185.531 30.0822 183.507 28.1981 181.103 28.1981C178.699 28.1981 176.675 30.0822 176.675 32.4059Z" fill="#1D1D1B" stroke="#1D1D1B" stroke-width="0.25" stroke-miterlimit="10"/>
<path d="M189.642 38.8744V26H193.944L196.158 32.1546H196.79L199.068 26H203.369V38.8744H201.029V28.1353H200.396L198.182 34.2899H194.829L192.616 28.1353H191.983V38.8744H189.642Z" fill="#1D1D1B" stroke="#1D1D1B" stroke-width="0.25" stroke-miterlimit="10"/>
<path d="M19.5462 19.4685H0V38.8743H19.5462V19.4685Z" fill="#006EFF"/>
<path d="M19.6281 19.4854L39.1743 19.4854V0.0795536L19.6281 0.0795536L19.6281 19.4854Z" fill="#3D3098"/>
</g>
<defs>
<clipPath id="clip0">
<rect width="230" height="39" fill="white"/>
</clipPath>
</defs>
</svg>
