<svg width="37" height="34" viewBox="0 0 37 34" fill="none" xmlns="http://www.w3.org/2000/svg">
<path d="M18.5 3.42383C17.2218 3.42383 16.1875 4.35804 16.1875 5.51254C16.1875 5.60229 16.2101 5.68796 16.2236 5.77363C12.2264 6.6956 9.25 9.97552 9.25 13.8674V23.2666C9.25 23.8581 8.74866 24.3109 8.09375 24.3109H6.9375V26.3996H15.248C15.1171 26.7301 15.0312 27.0768 15.0312 27.444C15.0312 29.1615 16.5985 30.5771 18.5 30.5771C20.4015 30.5771 21.9688 29.1615 21.9688 27.444C21.9688 27.0768 21.8829 26.7301 21.752 26.3996H30.0625V24.3109H28.9062C28.2513 24.3109 27.75 23.8581 27.75 23.2666V14.1611C27.75 10.2366 24.8458 6.73639 20.7764 5.77363C20.7899 5.68796 20.8125 5.60229 20.8125 5.51254C20.8125 4.35804 19.7782 3.42383 18.5 3.42383ZM17.9941 7.60125C18.1613 7.58901 18.3284 7.60125 18.5 7.60125C18.5723 7.60125 18.6445 7.60125 18.7168 7.60125C22.4927 7.70323 25.4375 10.6935 25.4375 14.1611V23.2666C25.4375 23.6337 25.5233 23.9805 25.6543 24.3109H11.3457C11.4767 23.9805 11.5625 23.6337 11.5625 23.2666V13.8674C11.5625 10.5507 14.3899 7.83786 17.9941 7.60125ZM18.5 26.3996C19.1504 26.3996 19.6562 26.8565 19.6562 27.444C19.6562 28.0314 19.1504 28.4883 18.5 28.4883C17.8496 28.4883 17.3438 28.0314 17.3438 27.444C17.3438 26.8565 17.8496 26.3996 18.5 26.3996Z" fill="#1D1D1B"/>
<circle cx="26" cy="12" r="6" fill="white"/>
<circle cx="26" cy="12" r="4" fill="#FF0000"/>
</svg>
