<svg width="20" height="26" viewBox="0 0 20 26" fill="none" xmlns="http://www.w3.org/2000/svg">
<path d="M0 0V26H20V0H0ZM2 2H18V24H2V2ZM9.40625 7.34375C9.10156 7.33984 8.74609 7.44922 8.5 7.65625C8.24609 7.87109 8.13281 8.13672 8.0625 8.40625C7.92578 8.94531 7.96484 9.50391 8.09375 10.125C8.24609 10.8516 8.67969 11.7266 9.03125 12.5625C8.85156 13.3242 8.80469 14 8.53125 14.7812C8.29688 15.4531 7.99609 15.8398 7.71875 16.4375C7.08984 16.6758 6.33984 16.8164 5.84375 17.125C5.30859 17.457 4.83984 17.8242 4.5625 18.3438C4.28516 18.8633 4.31641 19.5977 4.6875 20.125C4.87109 20.4023 5.11328 20.6211 5.4375 20.75C5.76172 20.8789 6.11328 20.8828 6.40625 20.7812C6.99609 20.5781 7.41406 20.125 7.8125 19.5938C8.18359 19.1016 8.44531 18.2656 8.78125 17.5938C9.28516 17.4258 9.64844 17.2148 10.1875 17.0938C10.75 16.9688 11.1289 17.0273 11.6562 16.9688C11.8828 17.2266 12.0742 17.6406 12.3125 17.8438C12.7891 18.2578 13.3125 18.5859 13.9375 18.625C14.5625 18.6641 15.1875 18.2734 15.5312 17.6875H15.5625V17.6562C15.7148 17.3906 15.8203 17.1016 15.8125 16.7812C15.8047 16.4609 15.6445 16.125 15.4375 15.9062C15.0273 15.4688 14.5039 15.3555 13.9375 15.2812C13.5 15.2227 12.8906 15.3789 12.375 15.4062C11.9219 14.8086 11.4727 14.3594 11.0625 13.5938C10.8398 13.1797 10.7812 12.8281 10.5938 12.4062C10.7383 11.7266 11.0234 10.9688 11.0625 10.375C11.1094 9.65625 11.082 9.03516 10.875 8.46875C10.7695 8.18359 10.6016 7.90234 10.3438 7.6875C10.0938 7.48047 9.76953 7.35156 9.4375 7.34375C9.42578 7.34375 9.41797 7.34375 9.40625 7.34375ZM10.0625 14.75C10.2422 15.0664 10.4648 15.2656 10.6562 15.5625C10.375 15.6133 10.1602 15.5625 9.875 15.625C9.82812 15.6367 9.79688 15.6758 9.75 15.6875C9.80859 15.5312 9.88281 15.4375 9.9375 15.2812C10 15.0977 10.0039 14.9336 10.0625 14.75ZM13.75 16.7812C14.0859 16.8242 14.207 16.8867 14.25 16.9062C14.2422 16.9219 14.2617 16.918 14.25 16.9375C14.125 17.1445 14.1133 17.1289 14.0312 17.125C13.9648 17.1211 13.7109 16.9844 13.4688 16.8125C13.5391 16.8164 13.6875 16.7734 13.75 16.7812ZM6.75 18.3438C6.69531 18.4258 6.64844 18.6172 6.59375 18.6875C6.28906 19.0938 6.00781 19.2812 5.9375 19.3125C5.92578 19.2969 5.95703 19.3125 5.9375 19.2812H5.90625C5.80469 19.1367 5.83203 19.1953 5.90625 19.0625C5.98047 18.9297 6.21484 18.6602 6.625 18.4062C6.65625 18.3867 6.71875 18.3633 6.75 18.3438Z" fill="#006EFF"/>
</svg>
