<svg width="16" height="10" viewBox="0 0 16 10" fill="none" xmlns="http://www.w3.org/2000/svg">
<path d="M8 10C5.05448 10 2.38781 8.33333 0 5C2.38781 1.66667 5.05448 0 8 0C10.9455 0 13.6122 1.66667 16 5C13.6122 8.33333 10.9455 10 8 10ZM8 1.42857C5.81661 1.42857 3.76493 2.57883 1.81339 5C3.76493 7.42117 5.81661 8.57143 8 8.57143C10.1834 8.57143 12.2351 7.42117 14.1866 5C12.2351 2.57883 10.1834 1.42857 8 1.42857ZM8 7.85714C6.39335 7.85714 5.09091 6.57796 5.09091 5C5.09091 3.42204 6.39335 2.14286 8 2.14286C9.60665 2.14286 10.9091 3.42204 10.9091 5C10.9091 6.57796 9.60665 7.85714 8 7.85714ZM8 6.42857C8.80332 6.42857 9.45455 5.78898 9.45455 5C9.45455 4.21102 8.80332 3.57143 8 3.57143C7.19668 3.57143 6.54545 4.21102 6.54545 5C6.54545 5.78898 7.19668 6.42857 8 6.42857Z" fill="#006EFF"/>
</svg>
